<svg width="14" height="27" viewBox="0 0 14 27" fill="none" xmlns="http://www.w3.org/2000/svg">
<path d="M10.1973 18.8047C10.1973 18.0299 9.95117 17.3919 9.45898 16.8906C8.9668 16.3802 8.14648 15.9245 6.99805 15.5234C5.84961 15.1133 4.95638 14.735 4.31836 14.3887C2.19466 13.2493 1.13281 11.5632 1.13281 9.33008C1.13281 7.81706 1.5931 6.57292 2.51367 5.59766C3.43424 4.6224 4.68294 4.04362 6.25977 3.86133V0.880859H8.44727V3.88867C10.0332 4.11654 11.2591 4.79102 12.125 5.91211C12.9909 7.02409 13.4238 8.47331 13.4238 10.2598H10.1152C10.1152 9.11133 9.85547 8.20898 9.33594 7.55273C8.82552 6.88737 8.12826 6.55469 7.24414 6.55469C6.36914 6.55469 5.68555 6.79167 5.19336 7.26562C4.70117 7.73958 4.45508 8.41862 4.45508 9.30273C4.45508 10.0957 4.69661 10.7337 5.17969 11.2168C5.67188 11.6908 6.5013 12.1419 7.66797 12.5703C8.83464 12.9987 9.75065 13.3952 10.416 13.7598C11.0814 14.1243 11.6419 14.5436 12.0977 15.0176C12.5534 15.4824 12.9043 16.0202 13.1504 16.6309C13.3965 17.2415 13.5195 17.957 13.5195 18.7773C13.5195 20.3177 13.0456 21.5664 12.0977 22.5234C11.1589 23.4805 9.84635 24.0456 8.16016 24.2188V26.8848H5.98633V24.2324C4.18164 24.0319 2.79167 23.3848 1.81641 22.291C0.85026 21.1973 0.367188 19.748 0.367188 17.9434H3.68945C3.68945 19.0918 3.97656 19.9805 4.55078 20.6094C5.13411 21.2383 5.95443 21.5527 7.01172 21.5527C8.05078 21.5527 8.83919 21.3021 9.37695 20.8008C9.92383 20.2995 10.1973 19.6341 10.1973 18.8047Z" fill="white"/>
</svg>
